<svg width="32" height="32" viewBox="0 0 32 32" fill="none" xmlns="http://www.w3.org/2000/svg">
  <rect width="32" height="32" rx="6" fill="#2DD4BF"/>
  <path d="M8 20C8 19.4477 8.44772 19 9 19H10.5C10.7761 19 11 18.7761 11 18.5V17.5C11 17.2239 11.2239 17 11.5 17H20.5C20.7761 17 21 17.2239 21 17.5V18.5C21 18.7761 21.2239 19 21.5 19H23C23.5523 19 24 19.4477 24 20V22C24 22.5523 23.5523 23 23 23H22C21.4477 23 21 22.5523 21 22V21H11V22C11 22.5523 10.5523 23 10 23H9C8.44772 23 8 22.5523 8 22V20Z" fill="#0A0A0A"/>
  <circle cx="11" cy="22" r="1.5" fill="#0A0A0A"/>
  <circle cx="21" cy="22" r="1.5" fill="#0A0A0A"/>
  <path d="M10 14L11.5 12H20.5L22 14H10Z" fill="#0A0A0A"/>
</svg>
